<svg width="32" height="32" viewBox="0 0 32 32" fill="none" xmlns="http://www.w3.org/2000/svg">
  <!-- Brain outline with circuit pattern -->
  <g stroke="#3b82f6" stroke-width="1.8" fill="none">
    <!-- Left hemisphere -->
    <path d="M 16 6 C 12 6 9 8 8 11 C 7 13 7 16 8 19 C 9 22 11 24 14 25" stroke-linecap="round"/>
    <!-- Right hemisphere -->
    <path d="M 16 6 C 20 6 23 8 24 11 C 25 13 25 16 24 19 C 23 22 21 24 18 25" stroke-linecap="round"/>
    <!-- Bottom connection -->
    <path d="M 14 25 C 15 26 17 26 18 25" stroke-linecap="round"/>

    <!-- Circuit nodes (critical thinking points) -->
    <circle cx="10" cy="11" r="1.2" fill="#3b82f6"/>
    <circle cx="22" cy="11" r="1.2" fill="#3b82f6"/>
    <circle cx="9" cy="16" r="1.2" fill="#3b82f6"/>
    <circle cx="23" cy="16" r="1.2" fill="#3b82f6"/>
    <circle cx="16" cy="9" r="1.2" fill="#3b82f6"/>

    <!-- Neural connections -->
    <path d="M 10 11 L 16 9" stroke-width="1" opacity="0.6" stroke-linecap="round"/>
    <path d="M 22 11 L 16 9" stroke-width="1" opacity="0.6" stroke-linecap="round"/>
    <path d="M 9 16 L 16 9" stroke-width="1" opacity="0.6" stroke-linecap="round"/>
    <path d="M 23 16 L 16 9" stroke-width="1" opacity="0.6" stroke-linecap="round"/>

    <!-- Question mark accent (critical thinking symbol) -->
    <g transform="translate(15, 19)" stroke="#10b981" stroke-width="1.5" fill="none">
      <path d="M 0 -2 C 0 -3 0.5 -3.5 1 -3.5 C 1.5 -3.5 2 -3 2 -2 C 2 -1 1 -0.5 1 0.5" stroke-linecap="round"/>
      <circle cx="1" cy="2" r="0.3" fill="#10b981"/>
    </g>
  </g>
</svg>
